<svg id="Layer_1" data-name="Layer 1" xmlns="http://www.w3.org/2000/svg" viewBox="0 0 392.53 293.32"><defs><style>.cls-1{fill:#fff;}.cls-2{fill:#f5f5f5;}.cls-3{fill:#444;}</style></defs><path class="cls-1" d="M136.33,20.66a136.36,136.36,0,0,0-122.13,197c2.65,4.51,5.44,8.94,7.78,13.62A136.33,136.33,0,1,0,136.33,20.66Z"/><path class="cls-1" d="M385.87,101.28c-2.85-2.89-7-2.87-10.9-3.3-4.93-.53-10-.07-14.93.08-5.33.17-21.62-.28-27-.11-42.92,1.35-74.9,3.41-117.78,4.67-4.16.13-8.63.27-12.49-1.56a11,11,0,0,1-6.09-9.88c-.32-9.36,7.39-15.82,14.08-21.15,12.85-10.2,26-21.84,32-37.54a46.47,46.47,0,0,0,1.45-4.61,35.81,35.81,0,0,0,4.4-15.73,10.32,10.32,0,0,0-2.2-7.09c-2.08-2.31-5.2-2.27-8-1.89a1,1,0,0,0-1.41,0c-13.53,12.08-27.17,24-41.19,35.58s-28.48,22.62-43.09,33.44-29.48,21.6-44.25,32.36c-3,2.17-6,4.39-9,6.54-1.28,1.14-2.59,2.26-3.94,3.32a39.41,39.41,0,0,1-8.39,7.28c-10.4,6.75-22.8,8.58-35,10.26a249.81,249.81,0,0,1-42,8.33c-1.43.14-2.86.27-4.3.39a11.38,11.38,0,0,0-1.27.35,2.06,2.06,0,0,0-1.26,1.12.61.61,0,0,1-.05.12.3.3,0,0,1-.07.24c-.08.08-.07.25-.09.39S.91,141.24,1,141.26a95,95,0,0,0-.8,17.92c.13,6.16.3,12.24,1,18.36a75.69,75.69,0,0,0,1.63,9.36c.8,3.15,1.9,6.27,2.57,9.45.53,2,1,4,1.59,6a52.88,52.88,0,0,0,2.49,6.44c3.62,7.81,8.7,14.82,12.54,22.51l1.11-.06q8.21-.34,16.41-.49a684.09,684.09,0,0,1,131.25,10.43c11.44,2,23.18,5.2,34.88,3.5a79.94,79.94,0,0,0,12.33-3,1,1,0,0,0,.87,1H219a48.4,48.4,0,0,0,16.73-4.69,25.09,25.09,0,0,0,2.63-1,.87.87,0,0,0,.92.59c3.6-.36,8.25-2.19,8.64-5.71a29.1,29.1,0,0,0,.27-3.23c.83-3.85-2.95-7.87-6.65-9.36a14.43,14.43,0,0,0-.52-1.49c9.62.68,21.66.82,27.69-7.91,4.63-6.71,4.16-16.76-4.16-20.08-3.67-1.48-10.32-1.6-12.18-5.69,7.5-4.88,16.84-3.81,25.39-3.89,7.44-.08,20.55-.5,25.48-6.83,3.49-4.48.85-12.24-2.86-17-2.32-3-6-3.85-9.61-4.26-5.29-.61-11.22-2-16.5-2.49A53.18,53.18,0,0,1,261.83,147c-2.88-1-7.18-1.4-7.11-5,.08-4.16,4.84-5.66,8.17-6.39,4.9-1,9.9-1.77,14.84-2.59q31.81-5.28,63.88-8.83,15.72-1.75,31.49-3.13c6.14-.52,16.08-1.25,17.12-8.86C390.67,108.82,388.24,103.69,385.87,101.28Z"/><g id="Layer_2" data-name="Layer 2"><path class="cls-2" d="M266.49,202.17c-3.13,2.47-4.6,9.36-8.82,10.4-3.18.78-7.28.48-10.48.21-5.43-.45-13.82-1.85-18.72,1.29-2.08,1.33-2.56,4.83.26,5.74l.17.06a3,3,0,0,0,2.83-.46c2.64-1.26,7-.92,9.71-.84,4.16.13,8.18.62,12.33.61,7.65,0,11.53-2.58,14.67-8.1C271.6,208.62,269.69,199.69,266.49,202.17Z"/><path class="cls-2" d="M243.6,232.05c-.29,2.24-2.52,3.37-4.25,4.28-.87.45-1.12.71-2,1.1l-4.16,1.15c-6.77-.28-9.86.56-16.44,1.78l-2.08.36c-17.38,1.55-34.44-1.76-51.25-6a3.45,3.45,0,0,0-.3-.61l-.78-.18c-1-.19-2.08-.41-3.12-.65-.25.05-.51.12-.77.16-6.38-1.71-12.62-3.46-18.86-5.08a83,83,0,0,0-17.39-2.51,108.26,108.26,0,0,0-18-3c-9.2-.58-18.43-1.7-27.63-2.71a501.42,501.42,0,0,0-53.26-2.9,56.23,56.23,0,0,0-9.11.37c2.77,4.72,5.71,9.34,8.11,14.26a13.17,13.17,0,0,0,.91,1.34h0v0l.08.09.16.21c.1.13.55.79.65.93,8-.56,15.81-1,23.83-1.37,4.54-.2,9.12-.31,13.67-.35,5,0,9.62.8,14.56,1.37a43,43,0,0,0,4.53.24l1.41.18c7.12,1,11.92,1.38,19,2.21.57,0,4.94.5,5.3.93,4.45-.13,7.38-.63,11.77.15,3.52.62,7.06,1.66,10.63,1.91a101.18,101.18,0,0,1,12.48,1.83c8.1,1.81,15.6,1,23.74,3.25,7.69,2.14,24.36,6.24,32.39,6.24s5.67-1.89,13.52-3.12l.72-.38c.93-.14,1.37-.47,2.31-.65a17,17,0,0,0,1.74-.12c.59-.05,3.92.25,4.33,0,5.06-1.18,4-.32,9.23-.68.85,1,5.53-.92,6.62-1.61a8.66,8.66,0,0,1,1.52-.62l.93-.14c.38-.08.77-.15,1.15-.24.14,0,1.2-.3.88-.3,1.4.06,2.43-1.24,3-2.55.55-.32,1.47-2,2-2.32,2.41-4.45,3.33-4.61,3.8-8.27C249.62,226.06,244.15,228.08,243.6,232.05Z"/><path class="cls-2" d="M305.42,166.29v-.11a3,3,0,0,0-3.83-1.64l-.17.08c-.93.52-.84,1.65-.82,2.57a6.36,6.36,0,0,1-2.21,4.57,11.82,11.82,0,0,1-7.33,3.31c-1.48.19-3,.24-4.47.29-5,.19-10-1-15-.79A50.9,50.9,0,0,0,251,179.33c-3.58,1.86-1.29,6.46,2.68,5.71,10-1.9,16.12-3.32,26.22-2.35a78.91,78.91,0,0,0,14.89-.87,14.43,14.43,0,0,0,5.54-2c3.22-2.09,4.22-5.92,4.83-9.47A9.93,9.93,0,0,0,305.42,166.29Z"/><path class="cls-2" d="M389.4,116.65c-.25-.44,1.37-5.86.86-5.93-3.46.34-6.95.81-10.4,1a42.14,42.14,0,0,0-9.08,1.3c-3,.84-5.73,2.24-8.76,2.94-1.47.34-2.94.23-4.39.48-5.2,1-10.4,1.9-15.68,2.76-4.38.73-8.59,1.81-13,2.28a138.68,138.68,0,0,0-15.85,2.39l-2.27.53c-2.66.32-5.32.65-8,1s-5.35.92-8.05,1.37c-4.55.09-9.14-.13-13.65-.12a95.72,95.72,0,0,0-14.83,1.33c-5.11.84-9.92,2.39-14.93,3.46a1.41,1.41,0,0,0-.72.36,4.91,4.91,0,0,0-2.54,2.08,4.15,4.15,0,0,0-.38,4.65c1.16,2.45,4.43,5.65,7.2,3.12a1.55,1.55,0,0,0,.49-.89,8.86,8.86,0,0,0,2-.42,13,13,0,0,0,1.58-.68,5.23,5.23,0,0,0,2.21-.9c.47-.33,6.08-.23,5.9-.78,6.43-.81,7.69-1.35,14-1.57,7.13-.24,14.5-1.89,21.36-3.72,3.74-1,7.28-1.23,11.11-1.92,4.09-.75,10.4-1.75,14.56-2.34,8.39-1.19,14.36-1.42,22.73-2.68.51,0,5.61,0,5.79-.53,6.63-.27,8.23-.71,14.8-.73,3.65-.07,9.76.38,13-1.78,1.67-1.12-.62-2.63-2.6-2.38C377.63,120.93,393.66,116.84,389.4,116.65Z"/><path class="cls-2" d="M249.45,8.57a9.71,9.71,0,0,0-1.19-2.47,4.47,4.47,0,0,0-1.54-1,1.37,1.37,0,0,0-.56.15v.09l-.06.22c.08,1,.51,2.08.58,3.18a12.92,12.92,0,0,1-.26,3.4,12.27,12.27,0,0,1-1,3.24,7.8,7.8,0,0,1-1.43,4,1.48,1.48,0,0,0-.38.82A25.75,25.75,0,0,1,241.11,27a30.67,30.67,0,0,1-4.39,7.81,1.23,1.23,0,0,0-.28,1.3l-.11.16c-3.18,4.16-7,7.66-10.58,11.44a106.6,106.6,0,0,1-9.19,9.34,88.88,88.88,0,0,0-15.75,17,54.24,54.24,0,0,0-5.13,8.32A13.09,13.09,0,0,0,193.15,88c-.44,2.57.64,4.29,1,6.85.24,2.08,4.34,3.22,4.08,1.24-.11-.75.38-1.29.42-2a13.52,13.52,0,0,0-.49-2.83c-.42-3,2.5-5.72,4.29-7.77A101.33,101.33,0,0,1,219.68,68c4.75-3.35,10.24-9.94,14.74-13.66,5.8-4.81,11.5-12.75,13.15-20.22,1-4.39,1.39-9,2.08-13.45a45.42,45.42,0,0,0,.7-9.67A12.66,12.66,0,0,0,249.45,8.57Z"/><path class="cls-3" d="M379.62,95.64c-4.89-1.24-10.32-.2-15.24.3a134.63,134.63,0,0,1-18.07.8c-5.47-.16-10.8-.87-16.31-.83Q320,96,310.05,96c-11.27,0-22.17,1.63-33.39,2.39-10.88.75-21.85,1.13-32.72,2.27-3.12.33-6.24-.62-9.36-.68H228a28.36,28.36,0,0,0-5.57.89c-3.48.66-7.28-.62-10.81-.85-3-.21-6.33-.18-8.84-2.23-5.2-4.16-1.58-9.36,1.36-13.08,3.43-4.34,8.37-7.55,12.48-11.23,4.62-4.16,8.94-8.63,13.59-12.72a18.77,18.77,0,0,1,4.95-4.62l.31-.29c2.56-2.86,5.09-5.74,7.67-8.58.12-.22.23-.43.34-.66a.41.41,0,0,1,.3-.24l.36-.7a67.71,67.71,0,0,0,5.65-14.87c1.25-4.78,1.4-9.44,2-14.31.51-4.1.85-8.44-2-11.82-5-6-11.89-6.18-17.16-.62-8.2,8.67-16,18-26,24.65-9.58,6.38-18.84,13.41-26.76,21.78-7.49,7.92-16.74,13.14-25.64,19.25a144.32,144.32,0,0,0-13,9.83c-1.58,1.37-3.39,2.08-5.05,3.21-2.28,1.64-3.93,3.87-6.38,5.35a88.5,88.5,0,0,0-12.33,8.32,159.5,159.5,0,0,1-14,10.26c-4.6,3.12-9.09,6.47-13.52,9.87a12.16,12.16,0,0,1-1.43,1.35c-.41.34-.83.66-1.25,1a2.13,2.13,0,0,1-.66.74,1.62,1.62,0,0,1-.6.59l-.47.2c-11.78,7.51-26,8.43-39.33,11.59-14,3.32-28.35,4.47-42.48,6.6-2,.3-1.45,3.37.54,3.12,6.41-1,12.92-1.84,19.39-2.67,4.45-.56,8.93-1,13.37-1.67,4.16-.67,8.21-2.08,12.39-2.8,13.94-2.63,28.53-4.61,40.27-13.15a1.55,1.55,0,0,0,.44-.48c3-2.4,5.89-4.9,9.1-7.12,4-2.75,8-5.52,12-8.32,4.34-3.12,8.1-6.86,12.29-10.11s8.65-4.83,12.54-8.25a38.11,38.11,0,0,1,5.2-3.45c1.65-1,2.85-2.65,4.44-3.83,4.42-3.32,8.88-6.6,13.52-9.68,4-2.71,8.42-5.08,12.35-7.94,4.69-3.43,8.68-7.67,12.7-11.84,7.56-7.87,16.9-14,25.79-20.16a102,102,0,0,0,10.07-8.11c.93,2.82,4.09,5.37,6.76,6.19,3.73,1.15,7.36-3,10-5,3.38-2.58,8.23-5,9.48-9.36a12.38,12.38,0,0,0-.11-8.32,9.48,9.48,0,0,1,2.82,7.28,77.22,77.22,0,0,1-2.2,16.85A65,65,0,0,1,241.52,44l-.45.86a1.66,1.66,0,0,0-.31.39c-1.25,2.32-3.68,4.25-5.46,6.25-.88,1-1.93,1.79-2.79,2.79a4.67,4.67,0,0,0-.41.58c-3.12,2.8-6.51,5.2-9.37,8.32a121.77,121.77,0,0,1-10.9,10.65c-5.7,4.91-15.55,10.8-14.77,19.76.8,9.25,11.28,9.06,18,9.91,5.2.65,9.27-.24,14.46-.37,4.48-.11,8.91,1,13.31.83,3.54-.09,7-.83,10.57-.84,2.94,0,5.64-.38,8.56-.65,5.61-.53,11.44-.68,17.11-1,3.12-.17,6.16-.69,9.26-1,2.91-.37,5.85-.16,8.75-.58,6.88-1,13.84-.68,20.8-.69,12.7,0,25.32,1,38,.78,5.66-.08,11.25-1.22,16.91-1.55a18.7,18.7,0,0,1,8.12,1c-5.2.14-11.44.7-15.13,4-2.92,2.63-3.22,9.23-1.77,12.66,1.93,4.57,8.32,4.71,12.48,4.85,2.08.06,4.86.42,7.58.37a11.36,11.36,0,0,1-3.91,1.65c-4.82,1-9.69.13-14.56.46-8.79.59-17.78,1.63-26.52,2.8-9,1.18-17.75,2.08-26.63,4a203.57,203.57,0,0,1-26.11,4.16,145.32,145.32,0,0,0-26.53,4.38c-3.25.87-8.71,3.61-4.16,6.86,2.44,1.73,5.85,2.27,8.66,3,4.31,1,8.42,2.16,12.82,2.86A115.9,115.9,0,0,0,290,153.28c5.58.26,9.45,2.83,12.26,7.83a15,15,0,0,1-2.5,17.42c-4.16,4-9.61,2.9-14.81,3.36s-10-.6-15.18-.59-9.87,1.78-14.83,2.44a8.47,8.47,0,0,0-2-.14c-1.34.11-2.61.38-4,.38-2,0-2.3,3.12-.29,3.12a27.59,27.59,0,0,0,3.85-.28,4.39,4.39,0,0,1,.89-.06c3.36,2.42,8.32,2.45,12.08,4.22,5.52,2.6,5.55,8.15,4.35,13.71a18.76,18.76,0,0,1-11.53,13.17c-5.7,1.94-10.87-1-16.64-.48a1.13,1.13,0,0,0-.59.2c-3.22,0-6.61-.31-9.76.24-2.08.37-4.16.63-5.07,2.77-.8,1.85,2.08,2.92,2.92,1,.5-1.14,4.76-1,5.72-1h6a10.54,10.54,0,0,0,2.81,2.64c1.6,1.3,3.2,2.4,3.68,4.51.44,1.91-.31,3.12-1,4.95a23.53,23.53,0,0,1-7.83,9.59c-4.05,3-8.27,2.6-12.88,3.12-3.66.37-7,.85-10.71,1-3.32.14-6.48,1.42-9.62,2.4-9.47,3-20.42.27-29.89-1.86-8.06-1.82-16.25-3.12-24.35-4.83-8.87-1.87-17.76-1.56-26.56-3.78a64,64,0,0,0-9-1.6q-5.58,0-11.16.2c-5.76-1.87-12.69-1.4-18.72-2.15-8.12-1-16.28-1.31-24.48-1.84-8.58-.55-16.86-.51-25.44-.37-3.62,0-7.21.3-10.79.6l-.06,0,0,0-.05,0-.17.17-.1.12a2.74,2.74,0,0,0-.23.36l-.09.19h0a1,1,0,0,1,0,.1,3.45,3.45,0,0,0-.12.46s0,.05,0,.07v0c0,.07,0,.14,0,.21a1.93,1.93,0,0,0,0,.24v.05c0,.07,0,.13.05.2a.56.56,0,0,1,0,.12l.12.21,0,0,0,0,.09.08,0,0,.05,0,.09.06.1.05h0l.21.06.17,0c3.44-.29,6.89-.52,10.36-.55,8-.1,15.87-.41,23.93.21,7.45.59,15.12.46,22.48,1.57,5.41.82,11.61.5,17.23,1.43a10.17,10.17,0,0,1,3.44.72c.83.07,1.66.15,2.49.26,9.53-.88,18,2.41,27.4,3.48,4.16.47,8.32.36,12.39.86,5.36.64,10.51,2.24,15.77,3.36,9,1.9,18.15,3.2,27.19,4.75a45,45,0,0,0,12.3.86c4.55-.44,8.6-2.78,13.09-3.47,3.56-.54,7.29-.21,10.88-.81s7.08-.37,10.76-1.49c6.95-2.08,12.12-7.7,14.74-14.28,1-2.65,2.23-4.69.83-7.46-.87-1.75-4.16-3.58-5.84-5.34,6,.15,11.05,2.75,17.22-.46,4.93-2.56,9.5-7.88,10.86-13.26,1.16-4.68,2.2-11.24-1-15.4-2.9-3.71-7.85-4-12.15-5.2a49,49,0,0,1,10.48-1.63c4.81,0,9.36,1.18,14.25.69,7.81-.8,15.84.17,20.37-7.8,3.26-5.77,4.07-12.8.22-18.25-1.94-2.75-4.31-6.24-7.39-7.83-3.37-1.8-8.25-1.23-11.94-1.66a111.29,111.29,0,0,1-15.9-2.75c-2.17-.59-4.38-1.12-6.55-1.71-2.34-.63-7.11-1.19-2.55-3.23,3.85-1.74,8.88-2,13-2.68,5.13-.88,10.2-1.29,15.37-1.76,9.69-.89,19.3-3.12,28.85-5a260.21,260.21,0,0,1,31.48-3.88c4.89-.34,9.77-1.31,14.67-1.73,5.2-.45,10.54.26,15.69-.5a17.09,17.09,0,0,0,9.66-5.07,12.1,12.1,0,0,0,1-1.14,10.53,10.53,0,0,0,2.31-6.82,1.78,1.78,0,0,0,.1-.52C392.4,104.24,388.37,97.83,379.62,95.64ZM243.43,12.41h0c-1.32,3.33-4,5-6.76,7-1.92,1.44-3.81,3.31-6,4.29-1.43.62-2.92,1.27-4.72.46a5.47,5.47,0,0,1-3-3.79,1.8,1.8,0,0,0-.28-.74A152.59,152.59,0,0,0,233.2,8.18C235.42,5.52,237.65,2.8,241,3h.38a1.84,1.84,0,0,1,.36.15,3.14,3.14,0,0,1,1.16,1.88,16,16,0,0,1,.69,1.86A8,8,0,0,1,243.43,12.41ZM389.15,112h0a7.27,7.27,0,0,1-1.21,5.7c-2.3.8-6.47.19-8.32.19-2.72,0-6.61.4-9.18-.79-3.12-1.43-4-3.33-3.78-6.52a7.88,7.88,0,0,1,3.38-5.93c3.12-2.23,9.8-2.08,13.37-2.16a1.61,1.61,0,0,0,1.37-.78,13.33,13.33,0,0,1,4.54,9.1l-.06.15A1.35,1.35,0,0,0,389.15,112Z"/></g><path class="cls-2" d="M367.14,114.15"/></svg>